<svg xmlns="http://www.w3.org/2000/svg" viewBox="0 0 1051.26 1083.19"><defs><style>.cls-1{fill:none;stroke:#fcfcfc;stroke-miterlimit:10;stroke-width:0.75px;}</style></defs><title>header_bg</title><g id="Capa_2" data-name="Capa 2"><g id="Capa_1-2" data-name="Capa 1"><path class="cls-1" d="M521.56.38c83-.1,149.29,87.37,213,130.5,49.33,33.38,105.33,42.64,155.07,70.61,105.43,59.28,92.57,223.59,131.14,319.61,26.89,66.93,43.5,146.88,15.89,216.76S940.59,855,882.92,898.73c-51.66,39.2-96.19,78.31-141.74,123.32-46.79,46.24-116.61,58.21-179.76,60.45C399.33,1088.25,288.3,1013.18,174,906.9,69.12,809.45,5.85,708.8.43,561.37-2.38,485,101.61,460.3,144.3,414.06c48.43-52.45,46.55-127,60.73-193.29C238.14,66,372.86,5.86,521.56.38ZM553.05,1032c118.46-8.84,189.64-103.37,279.52-169.63C954.88,772.23,1030,676.82,976.05,522.74,941.85,425,945.32,318.11,851,251.65,813.2,225,772.25,203.74,735.71,174.94,669.08,122.42,606.09,52.13,523.31,48.07c-120-5.89-241.66,77.67-280.47,202.11C222.39,315.76,220,374,167.42,424.77c-41.1,39.7-120.89,67.9-119.29,134.84,3.16,131.95,66.14,207.73,158.61,293.63C308.52,947.8,403.87,1039.77,553.05,1032ZM523.74,59.53c86.42,9.71,142.52,70.21,206.55,123,35.61,29.36,74.59,53.35,111.53,80.72C933,330.8,933.09,424.78,966.05,523.11c50.48,150.6-26.5,243.14-145,330.58-86.9,64.15-158.6,158.06-271.7,165.53-143.38,9.46-236-87.17-334.63-178.77-89.32-83-152.13-153.6-155.18-281.26C58,494,133.35,464.75,173.77,426c51.55-49.48,56.49-104.31,78.46-168C292.82,140.22,398.91,61.75,523.74,59.53Zm6,904.5c103.4-8.11,170.8-86.31,247.74-146.27,100.23-78.12,185-157,148.86-293.18-12.26-46.21-18.05-102.47-44.59-144.34-19.1-30.12-50.33-48.91-77-71.6-86.34-73.52-166.72-196.59-279.3-201.41-105.83-4.54-184.07,92.34-234,184.79-27.07,50.08-44.81,93.45-86.57,134.06-37.62,36.58-99.25,71.37-97.62,131.35,3.09,113.72,63,159.81,140.19,231.29C332.2,867.23,400.74,970.12,529.76,964Zm-3.84-845.35c114-1.63,192.91,132.77,270.34,200,26,22.57,57.85,40.69,77.35,69.81,26.13,39,32.67,92.3,43.51,136.39C949.89,658.22,864,732.4,768.35,809.19,693.82,869,625,943.41,524.37,950.5c-123.53,8.72-189.1-99-268.89-172.94C181.94,709.46,121.88,666.85,118.74,557c-1.64-57.3,51.71-89.7,87.88-124.88,41.47-40.33,63.94-83.41,93.81-132C353.74,213.49,413.75,121.66,525.92,118.68ZM501.63,894c92.85-4.74,167-62.57,235.74-119.45,78.35-64.78,160.79-135.87,141.45-248.23-15.33-89.06-54.14-113.17-116.27-170.1-69.21-63.42-126.09-191.82-234.88-189.85-102.06,1.85-135.37,101-191.13,167.21-50.2,59.63-172.31,136.91-170.11,221.66,2.43,93.13,60.72,124.46,121.21,182.51C354.89,802.29,394.42,895.18,501.63,894ZM528.1,177.83C634.31,175.2,688.45,301.46,755,363.39c59.12,55,101.28,76.57,114.47,163.27,16.28,107.05-63.31,178.67-138.63,240.11-68.06,55.54-145.06,111.4-234.38,113.8C396.27,883.27,358.1,791.93,294.89,730c-57.44-56.23-114.58-85.87-117-175.21-2.32-85.61,114.46-156.61,165.85-214.21C399.27,278.37,428.73,179.34,528.1,177.83ZM478.74,826.18c144.17-2.39,361.31-143.56,350.21-298-5.23-72.73-54.48-95.13-103.31-143.61-52.64-52.27-108.42-165-195.78-159-82.81,5.7-111.94,87.34-161.27,140.65-48.11,52-147.47,106.85-143,186.9,4,71.31,50.49,101.71,95.62,150.93C367.35,754.34,398.79,829,478.74,826.18ZM530.28,237c83.44-5.84,138.53,101,188.7,151.43,46.38,46.61,95.46,70.22,99.66,140.13,9.19,153-204.19,281.36-342.87,285.11-74.28,2-106-66.58-148.75-114.62-42.14-47.35-86.39-79.07-90-146.38-4.12-77.34,89.67-130.6,136.41-181.08C420.75,320.5,451.31,242.2,530.28,237ZM471.14,764.76c122.21-4,305.24-91.08,301.55-234.5-1.48-57.27-43.79-89.59-80.35-127.77C648.61,356.83,601.13,283.41,532,284.68c-63.55,1.18-100.94,65.91-140.18,108.19-41.31,44.51-108.63,90.27-107.11,158C286.32,621.56,391.63,772.82,471.14,764.76Zm61.32-468.62c66.59.28,112,65.8,153.61,109.56,35.22,37.05,74,70.13,75.6,125,4.06,138.72-176.79,216.11-289.59,223.16-77.22,4.83-174.24-134.34-175.88-203.4-1.53-64.1,60-109.35,100.15-152.51C434.12,357.34,471,298.73,532.46,296.14ZM482.74,711.37c93-2.67,239.19-67.28,235.2-178.64-2.68-74.87-108-189.07-183.73-188.89C457.06,344,343,473.74,343.89,548.72,344.7,618.6,406.79,712,482.74,711.37ZM534.63,355.3c78.94-2.44,168.44,104.55,173.21,177.94,7,108-134.61,166.68-221.32,168.44-73.84,1.5-130.34-85.09-131.17-153.38C354.46,474.78,457.93,356.57,534.63,355.3ZM505,662.44c70.26-1.05,163.12-47.59,161.64-127-1.19-64.07-64-134.57-130.22-132.45-66,2.12-134.67,77.1-133.34,143.55C404.2,604.09,439.66,666.6,505,662.44Zm31.84-248c62.93-1.58,118.28,61.1,120,121.52,2.09,74.73-86.1,112.43-147.14,117.16-58.47,4.52-94.2-55.62-95.15-107C413.36,484.11,474,416.88,536.81,414.45Zm-9.07,199.29c42.06-.38,88.21-33.89,87.7-75.58-.44-36.71-34.41-79.77-76.87-76C499,465.64,461,503.66,462.2,544.36,463.27,580.4,486.6,617.24,527.74,613.74ZM539,473.6c37.21-1.83,66,29.95,66.29,65.06.26,38.34-38.53,62.93-73.92,65.32-35.13,2.37-57.62-27.49-57.71-60C473.56,507.84,501.67,475,539,473.6Z"/></g></g></svg>