<?xml version="1.0" encoding="UTF-8"?>
<svg width="331px" height="1141px" viewBox="0 0 331 1141" version="1.1" xmlns="http://www.w3.org/2000/svg" xmlns:xlink="http://www.w3.org/1999/xlink">
    <!-- Generator: Sketch 53.2 (72643) - https://sketchapp.com -->
    <title>Group</title>
    <desc>Created with Sketch.</desc>
    <g id="Page-1" stroke="none" stroke-width="1" fill="none" fill-rule="evenodd">
        <g id="340" transform="translate(-348.000000, -332.000000)">
            <g id="Group" transform="translate(348.000000, 285.000000)">
                <path d="M138.434976,367.318382 C103.522976,452.079382 52.3799759,651.978382 75.7049759,839.979382 C97.5239759,1015.82838 179.233976,1167.94138 224.266976,1187.19138 C228.924976,1189.18138 101.423976,987.987382 89.6449759,791.438382 C77.5419759,589.453382 148.272976,386.998382 138.434976,367.318382" id="Fill-358" fill="#DDB35D"></path>
                <path d="M106.440976,192.504382 C97.9299759,181.462382 90.9429759,132.464382 91.1559759,101.418382 C69.6629759,94.559382 58.5019759,56.190382 98.9069759,48.459382 C110.153976,46.307382 120.917976,49.925382 122.545976,65.801382 C124.043976,80.407382 121.119976,94.641382 109.355976,100.116382 C109.137976,103.886382 108.960976,108.179382 108.960976,113.067382 C108.960976,160.594382 104.945976,147.767382 118.215976,186.633382 C120.598976,193.616382 113.157976,189.460382 106.440976,192.504382" id="Fill-359" fill="#F1B14C"></path>
                <path d="M218.431976,106.513382 C202.091976,90.958382 208.803976,51.566382 248.529976,62.253382 C259.586976,65.228382 267.690976,73.181382 262.223976,88.176382 C257.194976,101.970382 248.348976,113.499382 235.375976,113.288382 C233.533976,116.584382 231.499976,120.370382 229.365976,124.767382 C208.614976,167.525382 210.602976,154.233382 205.570976,194.992382 C204.666976,202.315382 199.786976,195.326382 192.414976,195.132382 C189.578976,181.482382 204.685976,134.350382 218.431976,106.513382 Z" id="Fill-361" fill="#F1B14C"></path>
                <path d="M148.668976,425.629382 C297.865976,422.925382 331.380976,150.811382 290.244976,113.801382 C259.572976,86.205382 213.120976,148.339382 201.080976,197.144382 C209.383976,124.823382 193.040976,67.229382 163.190976,63.706382 C125.581976,59.268382 116.875976,137.018382 109.668976,186.131382 C112.607976,166.255382 76.1239759,47.042382 31.5569759,95.178382 C13.2362289,114.965686 7.5387284,171.3881 14.7764763,232.061816 C19.4367931,271.129043 29.4599984,311.958838 44.9293822,345.906222 C62.198124,383.802278 86.2536999,413.121717 117.211976,421.838382 C126.850976,424.552382 137.531976,425.831382 148.668976,425.629382 Z" id="Fill-362" fill="#94643A"></path>
                <path d="M78.7039759,652.935382 C56.5419759,585.690382 85.1789759,575.692382 60.8469759,524.224382 C39.0419759,478.099382 3.84097589,471.462382 0.350975893,529.189382 C-6.20902411,637.671382 81.3959759,661.105382 78.7039759,652.935382" id="Fill-363" fill="#DDB35D"></path>
                <path d="M94.3229759,878.217382 C123.060976,813.510382 95.5609759,800.713382 124.887976,751.920382 C151.172976,708.191382 186.858976,705.088382 184.591976,762.876382 C180.331976,871.472382 90.8299759,886.079382 94.3229759,878.217382" id="Fill-364" fill="#DDB35D"></path>
                <path d="M76.4049759,403.050382 C62.3779759,396.436382 47.2309759,380.843382 36.8429759,356.992382 C21.6979759,322.213382 12.9879759,280.244382 12.8249759,278.691382 C12.1669759,272.419382 7.75297589,340.073382 31.0699759,375.588382 C52.7169759,408.562382 88.2589759,408.640382 76.4049759,403.050382" id="Fill-365" fill="#94643A"></path>
                <path d="M293.502976,101.687382 C304.778976,112.334382 314.328976,131.862382 316.788976,157.760382 C320.374976,195.524382 315.608976,238.121382 315.280976,239.647382 C313.958976,245.814382 339.179976,182.883382 328.056976,141.880382 C317.729976,103.811382 283.972976,92.690382 293.502976,101.687382" id="Fill-366" fill="#94643A"></path>
            </g>
        </g>
    </g>
</svg>