<svg xmlns="http://www.w3.org/2000/svg" viewBox="0 0 167.4 38.18"><defs><style>.cls-1{fill:#fff;}</style></defs><title>logo_wingu</title><g id="Capa_2" data-name="Capa 2"><g id="Layer_1" data-name="Layer 1"><rect class="cls-1" x="96.3" y="10.57" width="4.87" height="19.61"/><path class="cls-1" d="M115.94,10.2a7.6,7.6,0,0,0-3.35.7,6.08,6.08,0,0,0-2.25,1.76h0c0-.08-.52-1-1.17-2.09h-3.55V30.18h4.85V18.58a3.61,3.61,0,0,1,1.17-2.85,4.17,4.17,0,0,1,2.86-1,3.71,3.71,0,0,1,2.7,1,3.83,3.83,0,0,1,1,2.86v11.6h4.87V17.33a6.89,6.89,0,0,0-2-5.18,7.06,7.06,0,0,0-5.18-2"/><path class="cls-1" d="M162.55,10.61V22.29a3.57,3.57,0,0,1-1.17,2.84,4.27,4.27,0,0,1-2.9,1,3.71,3.71,0,0,1-2.7-1,3.76,3.76,0,0,1-1.05-2.85V10.61h-4.85V23.54a6.92,6.92,0,0,0,2,5.18A7.11,7.11,0,0,0,157,30.66a7.77,7.77,0,0,0,3.4-.71,6.09,6.09,0,0,0,2.29-1.83s.5,1,1.13,2.07h3.54V10.61Z"/><path class="cls-1" d="M98.72,1.83a2.72,2.72,0,0,0-2,.78,2.75,2.75,0,0,0-.77,2,2.71,2.71,0,0,0,.77,2,2.75,2.75,0,0,0,2,.77,2.79,2.79,0,0,0,2-.77,2.72,2.72,0,0,0,.78-2,2.75,2.75,0,0,0-.78-2,2.75,2.75,0,0,0-2-.77"/><path class="cls-1" d="M136.19,26.27c-3.46,0-4.93-2.88-4.93-5.87s1.47-5.86,4.93-5.86,4.92,2.88,4.92,5.86-1.47,5.87-4.92,5.87m5-13.51h0a7.33,7.33,0,0,0-6-2.57,8,8,0,0,0-6.34,2.85,10.85,10.85,0,0,0-2.47,7.33,11,11,0,0,0,2.47,7.35,8,8,0,0,0,6.34,2.88c3.45,0,5.35-1.63,5.91-2.43v1.29a3.65,3.65,0,0,1-.89,2.46A5.18,5.18,0,0,1,138,33.41a9.08,9.08,0,0,1-2.92.45,16,16,0,0,1-3.51-.4l-.28-.06-1.86,3.8a16.38,16.38,0,0,0,1.92.55,19,19,0,0,0,4,.43,14.61,14.61,0,0,0,4-.55,11.51,11.51,0,0,0,3.35-1.58,7.33,7.33,0,0,0,2.32-2.7,8.14,8.14,0,0,0,.85-3.77v-19h-3.54c-.75,1.33-1.21,2.19-1.21,2.19"/><polygon class="cls-1" points="84.82 25.25 80.44 10.63 77.16 10.63 72.76 25.25 68.77 10.63 63.77 10.63 69.53 30.17 75.55 30.17 78.8 19.19 82.04 30.17 88.06 30.17 93.78 10.63 88.78 10.63 84.82 25.25"/><path class="cls-1" d="M31.79,15.6A37.52,37.52,0,0,0,13.7,10.37,21.94,21.94,0,0,0,1.56,13.82a58.84,58.84,0,0,0,2.29,6.45A14.56,14.56,0,0,1,13.7,16.9a30.93,30.93,0,0,1,14.84,4.37A59.54,59.54,0,0,1,41,30.83l.88,1a51,51,0,0,0,3.71-5.59A64.92,64.92,0,0,0,31.79,15.6Z"/><path class="cls-1" d="M13.7,26c-2.12,0-3.66.57-4.23,1.57a2.55,2.55,0,0,0-.27,1.5,4.06,4.06,0,0,0,.78,2,51.08,51.08,0,0,0,5.16,6,48.62,48.62,0,0,1,9-7.78.06.06,0,0,0,0-.1A22.12,22.12,0,0,0,13.7,26"/><path class="cls-1" d="M27.48,23.14A28.68,28.68,0,0,0,13.7,19a12.19,12.19,0,0,0-8.92,3.3,45.26,45.26,0,0,0,2.29,4.3,8.43,8.43,0,0,1,6.63-2.8h0A24.07,24.07,0,0,1,25.1,27.3c.35.2,2.88,1.77,3.68,2.34a45.19,45.19,0,0,1,8.48,7.42c1.17-1.17,2.26-2.37,3.26-3.58-.34-.38-.7-.77-1.07-1.16A56.72,56.72,0,0,0,27.48,23.14Z"/><path class="cls-1" d="M6,3.56A58.68,58.68,0,0,0,0,6.13a39.14,39.14,0,0,0,1,5.52A24.17,24.17,0,0,1,13.7,8.23a39.55,39.55,0,0,1,19.15,5.51A67.19,67.19,0,0,1,46.66,24.23,55.74,55.74,0,0,0,49.8,17,76.69,76.69,0,0,0,36.52,7.31a52.09,52.09,0,0,0-8.8-4A32.48,32.48,0,0,0,6,3.56Z"/><path class="cls-1" d="M26.19,0C25.6,0,25,0,24.44,0h0a0,0,0,0,0,0,0s0,0,0,0A53.26,53.26,0,0,1,37.59,5.45a79.8,79.8,0,0,1,12.95,9.32,44.36,44.36,0,0,0,1.84-8.64A58.78,58.78,0,0,0,26.19,0Z"/></g></g></svg>